
<svg xmlns="http://www.w3.org/2000/svg" xmlns:xlink="http://www.w3.org/1999/xlink" width="1000" zoomAndPan="magnify" viewBox="0 0 750 299.999988" height="400" preserveAspectRatio="xMidYMid meet" version="1.0"><defs><g/><clipPath id="f41f48a8c8"><path d="M 0 0 L 300 0 L 300 300 L 0 300 Z M 0 0 " clip-rule="nonzero"/></clipPath><clipPath id="685083cf24"><path d="M 150 0 C 67.15625 0 0 67.15625 0 150 C 0 232.84375 67.15625 300 150 300 C 232.84375 300 300 232.84375 300 150 C 300 67.15625 232.84375 0 150 0 Z M 150 0 " clip-rule="nonzero"/></clipPath><clipPath id="11c387ba8d"><path d="M 450 0 L 750 0 L 750 300 L 450 300 Z M 450 0 " clip-rule="nonzero"/></clipPath><clipPath id="ae8dc8e19d"><path d="M 600 0 C 517.15625 0 450 67.15625 450 150 C 450 232.84375 517.15625 300 600 300 C 682.84375 300 750 232.84375 750 150 C 750 67.15625 682.84375 0 600 0 Z M 600 0 " clip-rule="nonzero"/></clipPath><clipPath id="b977f6ffe6"><path d="M 6.65625 6.65625 L 293.34375 6.65625 L 293.34375 293.34375 L 6.65625 293.34375 Z M 6.65625 6.65625 " clip-rule="nonzero"/></clipPath><clipPath id="f415f385e2"><path d="M 150 6.65625 C 70.832031 6.65625 6.65625 70.832031 6.65625 150 C 6.65625 229.167969 70.832031 293.34375 150 293.34375 C 229.167969 293.34375 293.34375 229.167969 293.34375 150 C 293.34375 70.832031 229.167969 6.65625 150 6.65625 Z M 150 6.65625 " clip-rule="nonzero"/></clipPath><clipPath id="0be719e4cf"><path d="M 257.8125 0 L 606.445312 0 L 606.445312 299.25 L 257.8125 299.25 Z M 257.8125 0 " clip-rule="nonzero"/></clipPath><clipPath id="c2535cf7a1"><path d="M 149.25 0 L 263.0625 0 L 263.0625 6.65625 L 149.25 6.65625 Z M 149.25 0 " clip-rule="nonzero"/></clipPath><clipPath id="3bb9106bfc"><path d="M 150 293.34375 L 267.5625 293.34375 L 267.5625 300 L 150 300 Z M 150 293.34375 " clip-rule="nonzero"/></clipPath></defs><g clip-path="url(#f41f48a8c8)"><g clip-path="url(#685083cf24)"><path fill="#000000" d="M 0 0 L 300 0 L 300 300 L 0 300 Z M 0 0 " fill-opacity="1" fill-rule="nonzero"/></g></g><g clip-path="url(#11c387ba8d)"><g clip-path="url(#ae8dc8e19d)"><path fill="#000000" d="M 450 0 L 750 0 L 750 300 L 450 300 Z M 450 0 " fill-opacity="1" fill-rule="nonzero"/></g></g><g clip-path="url(#b977f6ffe6)"><g clip-path="url(#f415f385e2)"><path fill="#ffffff" d="M 6.65625 6.65625 L 293.34375 6.65625 L 293.34375 293.34375 L 6.65625 293.34375 Z M 6.65625 6.65625 " fill-opacity="1" fill-rule="nonzero"/></g></g><path fill="#ffffff" d="M 150 0 L 300 0 L 300 300 L 150 300 Z M 150 0 " fill-opacity="1" fill-rule="nonzero"/><g fill="#000000" fill-opacity="1"><g transform="translate(21.342534, 222.359082)"><g><path d="M 152.546875 34.488281 C 134.417969 34.488281 123.144531 25.425781 123.144531 11.054688 L 123.144531 5.304688 C 181.289062 2.433594 220.863281 -30.953125 220.863281 -77.820312 C 220.863281 -126.902344 177.53125 -161.390625 114.742188 -161.390625 C 52.175781 -161.390625 8.84375 -126.902344 8.84375 -77.820312 C 8.84375 -31.394531 47.535156 1.769531 104.792969 5.304688 L 104.792969 12.824219 C 104.792969 36.257812 122.703125 50.847656 150.78125 50.847656 C 175.761719 50.847656 194.554688 40.015625 203.175781 21.667969 L 189.691406 12.601562 C 181.511719 27.855469 168.023438 34.488281 152.546875 34.488281 Z M 27.195312 -77.820312 C 27.195312 -117.394531 63.230469 -145.03125 114.742188 -145.03125 C 166.257812 -145.03125 202.292969 -117.394531 202.292969 -77.820312 C 202.292969 -38.246094 166.257812 -10.613281 114.742188 -10.613281 C 63.230469 -10.613281 27.195312 -38.246094 27.195312 -77.820312 Z M 27.195312 -77.820312 "/></g></g></g><g clip-path="url(#0be719e4cf)"><path fill="#000000" d="M 257.8125 -0.75 L 606.445312 -0.75 L 606.445312 299.25 L 257.8125 299.25 Z M 257.8125 -0.75 " fill-opacity="1" fill-rule="nonzero"/></g><g fill="#ffffff" fill-opacity="1"><g transform="translate(275.333635, 223.409385)"><g><path d="M 72.59375 0 L 117.839844 0 L 190.433594 -143.175781 L 148.203125 -143.175781 L 95.316406 -35.191406 L 95.117188 -35.191406 L 42.230469 -143.175781 L 0 -143.175781 Z M 72.59375 0 "/></g></g></g><g fill="#ffffff" fill-opacity="1"><g transform="translate(465.765512, 223.409385)"><g><path d="M 10.054688 0 L 50.273438 0 L 50.273438 -143.175781 L 10.054688 -143.175781 Z M 10.054688 0 "/></g></g></g><g fill="#ffffff" fill-opacity="1"><g transform="translate(526.092385, 223.409385)"><g><path d="M 10.054688 0 L 105.972656 0 C 161.074219 0 191.640625 -25.539062 191.640625 -71.589844 C 191.640625 -117.636719 161.074219 -143.175781 105.972656 -143.175781 L 10.054688 -143.175781 Z M 49.46875 -28.355469 L 49.46875 -114.824219 L 100.945312 -114.824219 C 133.925781 -114.824219 152.226562 -99.339844 152.226562 -71.589844 C 152.226562 -43.835938 133.925781 -28.355469 100.945312 -28.355469 Z M 49.46875 -28.355469 "/></g></g></g><g clip-path="url(#c2535cf7a1)"><path fill="#000000" d="M 149.25 0 L 263.0625 0 L 263.0625 6.65625 L 149.25 6.65625 Z M 149.25 0 " fill-opacity="1" fill-rule="nonzero"/></g><g clip-path="url(#3bb9106bfc)"><path fill="#000000" d="M 150 293.34375 L 267.5625 293.34375 L 267.5625 300 L 150 300 Z M 150 293.34375 " fill-opacity="1" fill-rule="nonzero"/></g></svg>